<mxfile host="app.diagrams.net" modified="2023-07-06T08:50:44.724Z" agent="Mozilla/5.0 (Windows NT 10.0; Win64; x64) AppleWebKit/537.36 (KHTML, like Gecko) Chrome/114.0.0.0 Safari/537.36" version="21.2.1" etag="CArUtRmtVCKKGZ1hJ9WV" type="github">
  <diagram name="Page-1" id="O1WATikJfMHQGp9PF2IP">
    <mxGraphModel>
      <root>
        <mxCell id="0" />
        <mxCell id="1" parent="0" />
      </root>
    </mxGraphModel>
  </diagram>
</mxfile>
